<svg width="1452" height="1452" viewBox="0 0 1452 1452" fill="none" xmlns="http://www.w3.org/2000/svg" xmlns:xlink="http://www.w3.org/1999/xlink">
<path d="M1044.123,790.022C1044.123,1094.64 872.573,1341.582 660.953,1341.582C449.336,1341.582 277.785,1094.64 277.785,790.022C277.785,485.402 449.336,238.46 660.953,238.46C872.573,238.46 1044.123,485.402 1044.123,790.022Z" transform="rotate(-90 660.954 790.022)" stroke="#000000" stroke-width="1" stroke-miterlimit="3.999327"/>
<path d="M1108.657,725.489C1108.657,1030.107 937.107,1277.049 725.487,1277.049C513.87,1277.049 342.319,1030.107 342.319,725.489C342.319,420.869 513.87,173.927 725.487,173.927C937.107,173.927 1108.657,420.869 1108.657,725.489Z" transform="rotate(-90 725.488 725.488)" stroke="#000000" stroke-width="1" stroke-miterlimit="3.999327"/>
<path d="M1173.191,660.955C1173.191,965.573 1001.641,1212.515 790.021,1212.515C578.403,1212.515 406.853,965.573 406.853,660.955C406.853,356.335 578.403,109.393 790.021,109.393C1001.641,109.393 1173.191,356.335 1173.191,660.955Z" transform="rotate(-90 790.022 660.954)" stroke="#000000" stroke-width="1" stroke-miterlimit="3.999327"/>
</svg>
