<svg width="70" height="56" viewBox="0 0 70 56" fill="none" xmlns="http://www.w3.org/2000/svg" xmlns:xlink="http://www.w3.org/1999/xlink">
<path d="M24.626,0.758L28.397,7.705C26.28,10.701 24.295,14.038 22.442,17.716C20.722,21.393 19.73,25.207 19.465,29.157L30.382,31.2L30.382,54.696L0.013,54.696L0.013,37.942C0.013,28.272 2.196,20.508 6.563,14.651C11.062,8.658 17.083,4.027 24.626,0.758ZM63.926,0.758L67.698,7.705C65.58,10.701 63.596,14.038 61.743,17.716C60.023,21.393 59.03,25.207 58.766,29.157L69.682,31.2L69.682,54.696L39.314,54.696L39.314,37.942C39.314,28.272 41.497,20.508 45.864,14.651C50.363,8.658 56.384,4.027 63.926,0.758Z" fill="#FFFFFF"/>
</svg>
